<svg width="18" height="19" viewBox="0 0 18 19" fill="none" xmlns="http://www.w3.org/2000/svg">
<path opacity="0.1" d="M2.20944 19C1.24691 17.4407 0.60158 15.8066 0.273445 14.0978C-0.0546892 12.3676 -0.0875025 10.6588 0.175005 8.97133C0.437513 7.28387 0.995341 5.67116 1.84849 4.13322C2.72352 2.59528 3.88293 1.21754 5.32672 0L7.32834 1.1855C7.67835 1.42046 7.83148 1.70883 7.78772 2.05059C7.74397 2.371 7.62366 2.638 7.42678 2.8516C6.90176 3.49241 6.43144 4.29342 6.0158 5.25464C5.62204 6.19449 5.35953 7.21979 5.22828 8.33052C5.09702 9.44126 5.14077 10.5947 5.35953 11.7909C5.57829 12.9871 6.03767 14.1619 6.7377 15.3153C7.04395 15.8066 7.13146 16.2445 7.0002 16.629C6.86895 17.0135 6.58457 17.2912 6.14705 17.4621L2.20944 19ZM12.4144 19C11.4519 17.4407 10.8066 15.8066 10.4784 14.0978C10.1503 12.3676 10.1175 10.6588 10.38 8.97133C10.6425 7.28387 11.2003 5.67116 12.0535 4.13322C12.9285 2.59528 14.0879 1.21754 15.5317 0L17.5333 1.1855C17.8833 1.42046 18.0365 1.70883 17.9927 2.05059C17.949 2.371 17.8286 2.638 17.6318 2.8516C17.1067 3.49241 16.6364 4.29342 16.2208 5.25464C15.827 6.19449 15.5645 7.21979 15.4333 8.33052C15.302 9.44126 15.3458 10.5947 15.5645 11.7909C15.7833 12.9871 16.2427 14.1619 16.9427 15.3153C17.2489 15.8066 17.3364 16.2445 17.2052 16.629C17.0739 17.0135 16.7896 17.2912 16.352 17.4621L12.4144 19Z" fill="black"/>
</svg>
