<svg width="16" height="16" viewBox="0 0 16 16" fill="none" xmlns="http://www.w3.org/2000/svg">
<path d="M7.10451 0.801651C7.47226 0.06177 8.52774 0.0617698 8.89549 0.801651L10.5478 4.1259C10.6938 4.41979 10.9748 4.6233 11.2996 4.67044L14.9847 5.20536C15.8067 5.32468 16.1333 6.33622 15.5363 6.91375L12.8802 9.48295C12.6423 9.713 12.5337 10.0458 12.59 10.3719L13.2179 14.0073C13.3588 14.8233 12.5035 15.4472 11.7695 15.0638L8.46293 13.3369C8.1729 13.1855 7.8271 13.1855 7.53707 13.3369L4.2305 15.0638C3.49646 15.4472 2.64122 14.8233 2.78215 14.0073L3.40999 10.3719C3.4663 10.0458 3.35767 9.71301 3.11983 9.48295L0.463739 6.91375C-0.133327 6.33622 0.193272 5.32468 1.01534 5.20536L4.70041 4.67044C5.02519 4.6233 5.30617 4.41979 5.45224 4.1259L7.10451 0.801651Z" fill="#4C7C7D"/>
</svg>
