<svg width="16" height="15" viewBox="0 0 16 15" fill="none" xmlns="http://www.w3.org/2000/svg">
<path d="M7.37408 1.25004C7.63218 0.734586 8.36782 0.734588 8.62592 1.25004L10.3081 4.60967C10.4108 4.81467 10.6073 4.95641 10.8342 4.9891L14.5806 5.52891C15.1576 5.61206 15.3861 6.32289 14.9656 6.72669L12.2687 9.31617C12.1007 9.47744 12.0239 9.71167 12.0638 9.94108L12.7019 13.6085C12.8012 14.179 12.2042 14.6165 11.6901 14.3499L8.32218 12.6039C8.12016 12.4992 7.87984 12.4992 7.67782 12.6039L4.30991 14.3499C3.79579 14.6165 3.19883 14.179 3.29809 13.6085L3.93616 9.94108C3.97607 9.71168 3.8993 9.47744 3.73134 9.31617L1.03445 6.72669C0.613905 6.32289 0.842379 5.61206 1.41943 5.52891L5.16577 4.9891C5.39269 4.95641 5.58921 4.81466 5.69186 4.60967L7.37408 1.25004Z" fill="#383634"/>
</svg>
