<svg width="16" height="15" viewBox="0 0 16 15" fill="none" xmlns="http://www.w3.org/2000/svg">
<path opacity="0.2" d="M7.82117 1.4739C7.89491 1.32663 8.10509 1.32663 8.17883 1.47391L9.86106 4.83353C10.037 5.18496 10.3739 5.42794 10.7629 5.48399L14.5093 6.0238C14.6741 6.04756 14.7394 6.25065 14.6193 6.36602L11.9224 8.95551C11.6344 9.23197 11.5028 9.63352 11.5712 10.0268L12.2093 13.6942C12.2377 13.8572 12.0671 13.9822 11.9202 13.906L8.5523 12.16C8.20599 11.9805 7.79401 11.9805 7.4477 12.16L4.07978 13.906C3.93289 13.9822 3.76233 13.8572 3.79069 13.6942L4.42876 10.0268C4.49718 9.63352 4.36557 9.23197 4.07763 8.95551L1.38074 6.36602C1.26059 6.25065 1.32587 6.04756 1.49074 6.0238L5.23708 5.48399C5.62608 5.42794 5.96298 5.18496 6.13894 4.83353L7.82117 1.4739Z" fill="#383634" stroke="#383634" stroke-linecap="round" stroke-linejoin="round"/>
</svg>
